<svg xmlns="http://www.w3.org/2000/svg" width="1609.583" height="1619.254" viewBox="0 0 425.869 428.428"><g fill="#fff"><path style="line-height:normal;font-variant-ligatures:normal;font-variant-position:normal;font-variant-caps:normal;font-variant-numeric:normal;font-variant-alternates:normal;font-feature-settings:normal;text-indent:0;text-align:start;text-decoration-line:none;text-decoration-style:solid;text-decoration-color:#000;text-transform:none;text-orientation:mixed;white-space:normal;shape-padding:0;isolation:auto;mix-blend-mode:normal;solid-color:#000;solid-opacity:1" d="M212.935 22.9c-105.168 0-191.314 86.146-191.314 191.313 0 105.168 86.146 191.315 191.314 191.315 105.168 0 191.313-86.147 191.313-191.315 0-105.167-86.145-191.312-191.313-191.312zm0 83.032c60.294 0 108.28 47.988 108.28 108.281 0 60.294-47.986 108.282-108.28 108.282-60.293 0-108.281-47.988-108.281-108.282 0-60.293 47.988-108.28 108.281-108.28z" color="#000" font-weight="400" font-family="sans-serif" overflow="visible"/><path d="M213.331 214.214a.397.397 0 01-.397.397.397.397 0 01-.396-.397.397.397 0 01.396-.397.397.397 0 01.397.397z"/><path style="line-height:normal;font-variant-ligatures:normal;font-variant-position:normal;font-variant-caps:normal;font-variant-numeric:normal;font-variant-alternates:normal;font-feature-settings:normal;text-indent:0;text-align:start;text-decoration-line:none;text-decoration-style:solid;text-decoration-color:#000;text-transform:none;text-orientation:mixed;white-space:normal;shape-padding:0;isolation:auto;mix-blend-mode:normal;solid-color:#000;solid-opacity:1" d="M388.316 0L0 391.146l37.552 37.283L425.87 37.282z" color="#000" font-weight="400" font-family="sans-serif" overflow="visible"/></g></svg>