<svg xmlns="http://www.w3.org/2000/svg" xmlns:xlink="http://www.w3.org/1999/xlink" width="468.344" height="79.467" viewBox="0 0 123.916 21.026"><defs><linearGradient id="a"><stop offset="0" stop-color="#0072ff"/><stop offset="1" stop-color="#19e0c9"/></linearGradient><linearGradient xlink:href="#a" id="b" x1="44.709" y1="128.046" x2="124.022" y2="143.108" gradientUnits="userSpaceOnUse"/><linearGradient xlink:href="#a" id="c" gradientUnits="userSpaceOnUse" x1="44.709" y1="128.046" x2="124.022" y2="143.108"/><linearGradient xlink:href="#a" id="d" gradientUnits="userSpaceOnUse" x1="44.709" y1="128.046" x2="124.022" y2="143.108"/><linearGradient xlink:href="#a" id="e" gradientUnits="userSpaceOnUse" x1="44.709" y1="128.046" x2="124.022" y2="143.108"/><linearGradient xlink:href="#a" id="f" gradientUnits="userSpaceOnUse" x1="44.709" y1="128.046" x2="124.022" y2="143.108"/><linearGradient xlink:href="#a" id="g" gradientUnits="userSpaceOnUse" x1="44.709" y1="128.046" x2="124.022" y2="143.108"/><linearGradient xlink:href="#a" id="h" gradientUnits="userSpaceOnUse" x1="44.709" y1="128.046" x2="124.022" y2="143.108"/><linearGradient xlink:href="#a" id="i" gradientUnits="userSpaceOnUse" x1="44.709" y1="128.046" x2="124.022" y2="143.108"/><linearGradient xlink:href="#a" id="j" gradientUnits="userSpaceOnUse" x1="44.709" y1="128.046" x2="124.022" y2="143.108"/><linearGradient xlink:href="#a" id="k" gradientUnits="userSpaceOnUse" x1="44.709" y1="128.046" x2="124.022" y2="143.108"/></defs><g font-size="22.578" letter-spacing="0" word-spacing="0" stroke-width=".265"><g aria-label=".sh" style="line-height:1.25;-inkscape-font-specification:'Copyright Klim Type Foundry'" font-weight="900" font-family="Gelion" fill="#333"><path d="M98.758 15.787q-.903 0-1.477-.573-.562-.585-.562-1.4 0-.816.562-1.4.574-.585 1.477-.585.882 0 1.456.595.573.585.573 1.39 0 .793-.573 1.389-.574.584-1.456.584zM106.773 15.787q-2.006 0-3.274-.937-1.257-.937-1.4-2.569h3.461q.022.452.342.706.331.242.85.242.43 0 .683-.154.264-.155.264-.474 0-.298-.187-.42-.188-.12-.573-.209l-1.588-.385q-3.02-.728-3.02-3.164 0-1.599 1.212-2.57 1.224-.98 3.186-.98 1.918 0 3.109.948 1.202.948 1.257 2.491h-3.44q0-.386-.287-.606-.275-.232-.727-.232-.364 0-.584.166-.21.154-.21.44 0 .276.177.387.187.11.683.231l1.874.452q1.4.342 2.062 1.158.672.804.672 1.929 0 1.62-1.246 2.59-1.234.96-3.296.96zM113.134 0h3.506v6.14q.452-.606 1.224-.937.782-.33 1.708-.33 1.875 0 2.845 1.157.97 1.147.97 3.087v6.372h-3.495V9.955q0-1.202-.518-1.554-.518-.364-1.025-.364-1.742 0-1.731 1.852v5.6h-3.484z" style="-inkscape-font-specification:'Gelion, Heavy';font-variant-ligatures:normal;font-variant-caps:normal;font-variant-numeric:normal;font-feature-settings:normal;text-align:start"/></g><text style="line-height:1.25;-inkscape-font-specification:'Copyright Klim Type Foundry'" x="53.839" y="118.817" font-weight="400" font-family="Copyright Klim Type Foundry" transform="translate(-37.338 -124.367)"/><g aria-label="hypertext" style="line-height:1.25;-inkscape-font-specification:'Gelion Heavy'" font-weight="900" font-family="Gelion" fill="url(#b)" transform="translate(-37.338 -124.367)"><path d="M37.338 124.8h3.506v6.14q.452-.606 1.223-.937.783-.33 1.71-.33 1.873 0 2.843 1.157.97 1.146.97 3.087v6.372h-3.494v-5.535q0-1.201-.518-1.554-.518-.364-1.026-.364-1.741 0-1.73 1.852v5.6h-3.484z" fill="url(#c)"/><path d="M60.643 130.036l-4.762 11.807q-.386.948-.86 1.665-.474.727-1.433 1.3-.96.585-2.448.585-.882 0-2.193-.276l.044-2.844q.904.154 1.543.165.794 0 1.235-.22.452-.21.65-.53.21-.319.42-.837l.11-.287-4.388-10.528h3.803l2.205 6.262 2.37-6.262z" fill="url(#d)"/><path d="M68.449 129.672q1.488 0 2.634.684 1.158.672 1.797 1.918.65 1.246.65 2.844 0 1.599-.65 2.845-.64 1.245-1.808 1.94-1.157.683-2.623.683-1.897 0-2.955-.948v5.545h-3.506v-15.147h2.922l.176 1.036q.518-.672 1.4-1.036.882-.364 1.963-.364zm-.695 7.772q.992 0 1.599-.639.606-.65.606-1.665 0-1.014-.606-1.653-.607-.65-1.599-.65t-1.632.639q-.628.628-.628 1.664 0 1.037.628 1.676.64.628 1.632.628z" fill="url(#e)"/><path d="M85.58 136.926q-.32 1.643-1.753 2.657-1.433 1.003-3.44 1.003-1.62 0-2.865-.683-1.246-.695-1.94-1.94-.684-1.246-.684-2.845 0-1.653.683-2.877.695-1.235 1.93-1.896 1.234-.673 2.81-.673 1.555 0 2.735.64 1.19.628 1.84 1.764.662 1.124.662 2.568 0 .86-.132 1.444h-7.067q.044.75.596 1.213.55.463 1.433.463.65 0 1.124-.22.485-.232.684-.618zm-3.616-3.098q-.022-.606-.518-.959-.496-.352-1.257-.352-.75 0-1.245.352-.496.353-.54.96z" fill="url(#f)"/><path d="M93.022 129.948q.518 0 .926.088v3.054l-.43-.022q-1.356 0-2.084.694-.716.684-.716 1.94v4.587h-3.506v-10.253h3.208l.231 1.312q.254-.695.882-1.047.629-.353 1.489-.353z" fill="url(#g)"/><path d="M102.227 132.924h-1.896v7.365h-3.506v-7.365h-1.874v-2.888h1.874v-2.635h3.506v2.635h1.896z" fill="url(#h)"/><path d="M113.714 136.926q-.32 1.643-1.753 2.657-1.433 1.003-3.44 1.003-1.62 0-2.865-.683-1.246-.695-1.94-1.94-.684-1.246-.684-2.845 0-1.653.683-2.877.695-1.235 1.93-1.896 1.234-.673 2.81-.673 1.555 0 2.735.64 1.19.628 1.84 1.764.662 1.124.662 2.568 0 .86-.132 1.444h-7.067q.045.75.596 1.213.55.463 1.433.463.65 0 1.124-.22.485-.232.684-.618zm-3.616-3.098q-.022-.606-.518-.959-.496-.352-1.257-.352-.75 0-1.245.352-.496.353-.54.96z" fill="url(#i)"/><path d="M118.201 140.289h-3.792l3.23-4.95-3.418-5.303h4.024l1.698 2.91 1.532-2.91h3.881l-3.34 5.237 3.208 5.016h-4.002q-1.103-1.94-1.532-2.734z" fill="url(#j)"/><path d="M133.316 132.924h-1.897v7.365h-3.505v-7.365h-1.875v-2.888h1.875v-2.635h3.505v2.635h1.897z" fill="url(#k)"/></g></g></svg>