<svg xmlns="http://www.w3.org/2000/svg" xmlns:xlink="http://www.w3.org/1999/xlink" width="1609.583" height="1619.254" viewBox="0 0 425.869 428.428"><defs><linearGradient id="a"><stop offset="0" stop-color="#0072ff"/><stop offset="1" stop-color="#19e0c9"/></linearGradient><linearGradient xlink:href="#a" id="b" x1="-.002" y1="809.629" x2="1609.582" y2="809.629" gradientUnits="userSpaceOnUse"/></defs><path style="line-height:normal;font-variant-ligatures:normal;font-variant-position:normal;font-variant-caps:normal;font-variant-numeric:normal;font-variant-alternates:normal;font-feature-settings:normal;text-indent:0;text-align:start;text-decoration-line:none;text-decoration-style:solid;text-decoration-color:#000;text-transform:none;text-orientation:mixed;white-space:normal;shape-padding:0;isolation:auto;mix-blend-mode:normal;solid-color:#000;solid-opacity:1" d="M1467.65.002l-229.916 231.59c-120.93-90.967-270.962-145.037-432.94-145.037-397.484 0-723.077 325.585-723.077 723.07 0 163.846 55.33 315.471 148.207 437.117L-.002 1478.344l141.932 140.912 229.92-231.594c120.932 90.969 270.967 145.041 432.945 145.041 397.485 0 723.07-325.593 723.07-723.078 0-163.848-55.33-315.472-148.207-437.117l229.924-231.6L1467.65.002zM804.795 400.373c76.737 0 148.196 20.57 209.234 56.553L453.62 1021.42c-36.924-61.597-58.076-133.983-58.076-211.795 0-227.881 181.37-409.252 409.252-409.252zm351.17 197.457c36.923 61.597 58.074 133.983 58.074 211.795 0 227.881-181.363 409.252-409.244 409.252-76.738 0-148.2-20.569-209.24-56.553l560.41-564.494z" transform="scale(.26458)" color="#000" font-weight="400" font-family="sans-serif" overflow="visible" fill="url(#b)"/></svg>