<?xml version="1.0" encoding="UTF-8" standalone="no"?>
<!-- Created with Inkscape (http://www.inkscape.org/) -->

<svg
   xmlns:dc="http://purl.org/dc/elements/1.1/"
   xmlns:cc="http://creativecommons.org/ns#"
   xmlns:rdf="http://www.w3.org/1999/02/22-rdf-syntax-ns#"
   xmlns:svg="http://www.w3.org/2000/svg"
   xmlns="http://www.w3.org/2000/svg"
   xmlns:xlink="http://www.w3.org/1999/xlink"
   xmlns:sodipodi="http://sodipodi.sourceforge.net/DTD/sodipodi-0.dtd"
   xmlns:inkscape="http://www.inkscape.org/namespaces/inkscape"
   width="123.91596mm"
   height="21.02565mm"
   viewBox="0 0 123.91596 21.02565"
   version="1.1"
   id="svg8"
   inkscape:version="0.92.5 (0.92.5+68)"
   sodipodi:docname="name-offwhite.svg">
  <defs
     id="defs2">
    <linearGradient
       inkscape:collect="always"
       id="linearGradient835">
      <stop
         style="stop-color:#0072ff;stop-opacity:1"
         offset="0"
         id="stop831" />
      <stop
         style="stop-color:#19e0c9;stop-opacity:1"
         offset="1"
         id="stop833" />
    </linearGradient>
    <linearGradient
       inkscape:collect="always"
       xlink:href="#linearGradient835"
       id="linearGradient837"
       x1="44.708813"
       y1="128.04582"
       x2="124.02181"
       y2="143.10805"
       gradientUnits="userSpaceOnUse" />
    <linearGradient
       inkscape:collect="always"
       xlink:href="#linearGradient835"
       id="linearGradient911"
       gradientUnits="userSpaceOnUse"
       x1="44.708813"
       y1="128.04582"
       x2="124.02181"
       y2="143.10805" />
    <linearGradient
       inkscape:collect="always"
       xlink:href="#linearGradient835"
       id="linearGradient913"
       gradientUnits="userSpaceOnUse"
       x1="44.708813"
       y1="128.04582"
       x2="124.02181"
       y2="143.10805" />
    <linearGradient
       inkscape:collect="always"
       xlink:href="#linearGradient835"
       id="linearGradient915"
       gradientUnits="userSpaceOnUse"
       x1="44.708813"
       y1="128.04582"
       x2="124.02181"
       y2="143.10805" />
    <linearGradient
       inkscape:collect="always"
       xlink:href="#linearGradient835"
       id="linearGradient917"
       gradientUnits="userSpaceOnUse"
       x1="44.708813"
       y1="128.04582"
       x2="124.02181"
       y2="143.10805" />
    <linearGradient
       inkscape:collect="always"
       xlink:href="#linearGradient835"
       id="linearGradient919"
       gradientUnits="userSpaceOnUse"
       x1="44.708813"
       y1="128.04582"
       x2="124.02181"
       y2="143.10805" />
    <linearGradient
       inkscape:collect="always"
       xlink:href="#linearGradient835"
       id="linearGradient921"
       gradientUnits="userSpaceOnUse"
       x1="44.708813"
       y1="128.04582"
       x2="124.02181"
       y2="143.10805" />
    <linearGradient
       inkscape:collect="always"
       xlink:href="#linearGradient835"
       id="linearGradient923"
       gradientUnits="userSpaceOnUse"
       x1="44.708813"
       y1="128.04582"
       x2="124.02181"
       y2="143.10805" />
    <linearGradient
       inkscape:collect="always"
       xlink:href="#linearGradient835"
       id="linearGradient925"
       gradientUnits="userSpaceOnUse"
       x1="44.708813"
       y1="128.04582"
       x2="124.02181"
       y2="143.10805" />
    <linearGradient
       inkscape:collect="always"
       xlink:href="#linearGradient835"
       id="linearGradient927"
       gradientUnits="userSpaceOnUse"
       x1="44.708813"
       y1="128.04582"
       x2="124.02181"
       y2="143.10805" />
  </defs>
  <sodipodi:namedview
     id="base"
     pagecolor="#ffffff"
     bordercolor="#666666"
     borderopacity="1.0"
     inkscape:pageopacity="0.0"
     inkscape:pageshadow="2"
     inkscape:zoom="1.1307826"
     inkscape:cx="395.17769"
     inkscape:cy="-79.475398"
     inkscape:document-units="mm"
     inkscape:current-layer="layer1"
     showgrid="false"
     inkscape:window-width="956"
     inkscape:window-height="1041"
     inkscape:window-x="960"
     inkscape:window-y="818"
     inkscape:window-maximized="0" />
  <metadata
     id="metadata5">
    <rdf:RDF>
      <cc:Work
         rdf:about="">
        <dc:format>image/svg+xml</dc:format>
        <dc:type
           rdf:resource="http://purl.org/dc/dcmitype/StillImage" />
        <dc:title />
      </cc:Work>
    </rdf:RDF>
  </metadata>
  <g
     inkscape:label="Layer 1"
     inkscape:groupmode="layer"
     id="layer1"
     transform="translate(-37.337934,-124.36727)">
    <g
       aria-label=".sh"
       style="font-style:normal;font-variant:normal;font-weight:normal;font-stretch:normal;font-size:22.57777786px;line-height:1.25;font-family:'Copyright Klim Type Foundry';-inkscape-font-specification:'Copyright Klim Type Foundry';letter-spacing:0px;word-spacing:0px;fill:#333333;fill-opacity:1;stroke:none;stroke-width:0.26458332"
       id="text817"
       transform="translate(-0.52916667)">
      <path
         d="m 136.6256,140.15407 q -0.90399,0 -1.47726,-0.57326 -0.56224,-0.58429 -0.56224,-1.40009 0,-0.8158 0.56224,-1.40009 0.57327,-0.58428 1.47726,-0.58428 0.88194,0 1.45521,0.59531 0.57326,0.58429 0.57326,1.38906 0,0.79375 -0.57326,1.38906 -0.57327,0.58429 -1.45521,0.58429 z"
         style="font-style:normal;font-variant:normal;font-weight:900;font-stretch:normal;font-size:22.57777786px;font-family:Gelion;-inkscape-font-specification:'Gelion, Heavy';font-variant-ligatures:normal;font-variant-caps:normal;font-variant-numeric:normal;font-feature-settings:normal;text-align:start;writing-mode:lr-tb;text-anchor:start;fill:#333333;fill-opacity:1;stroke-width:0.26458332"
         id="path877"
         inkscape:connector-curvature="0" />
      <path
         d="m 144.64027,140.15407 q -2.00642,0 -3.27422,-0.93706 -1.25677,-0.93707 -1.40009,-2.56867 h 3.46164 q 0.022,0.452 0.34175,0.70556 0.33073,0.24253 0.84887,0.24253 0.42995,0 0.68351,-0.15434 0.26458,-0.15434 0.26458,-0.47404 0,-0.29766 -0.18741,-0.41893 -0.18741,-0.12126 -0.57327,-0.20946 l -1.5875,-0.38585 q -3.02066,-0.7276 -3.02066,-3.16398 0,-1.59852 1.21268,-2.56866 1.2237,-0.98116 3.18602,-0.98116 1.91823,0 3.10886,0.94809 1.20165,0.94809 1.25677,2.49149 h -3.43959 q 0,-0.38585 -0.28663,-0.60633 -0.27561,-0.23152 -0.7276,-0.23152 -0.3638,0 -0.58429,0.16537 -0.20946,0.15434 -0.20946,0.44097 0,0.27561 0.17639,0.38585 0.18741,0.11025 0.6835,0.23151 l 1.87414,0.452 q 1.40008,0.34175 2.06154,1.15755 0.67248,0.80478 0.67248,1.92925 0,1.62058 -1.24574,2.59072 -1.23472,0.95911 -3.29627,0.95911 z"
         style="font-style:normal;font-variant:normal;font-weight:900;font-stretch:normal;font-size:22.57777786px;font-family:Gelion;-inkscape-font-specification:'Gelion, Heavy';font-variant-ligatures:normal;font-variant-caps:normal;font-variant-numeric:normal;font-feature-settings:normal;text-align:start;writing-mode:lr-tb;text-anchor:start;fill:#333333;fill-opacity:1;stroke-width:0.26458332"
         id="path879"
         inkscape:connector-curvature="0" />
      <path
         d="m 151.00129,124.36727 h 3.50573 v 6.14053 q 0.452,-0.60633 1.2237,-0.93706 0.78273,-0.33073 1.70877,-0.33073 1.87413,0 2.84427,1.15755 0.97014,1.14653 0.97014,3.08681 v 6.37204 h -3.49471 v -5.5342 q 0,-1.20165 -0.51814,-1.55442 -0.51814,-0.36381 -1.02526,-0.36381 -1.74184,0 -1.73082,1.85209 v 5.60034 h -3.48368 z"
         style="font-style:normal;font-variant:normal;font-weight:900;font-stretch:normal;font-size:22.57777786px;font-family:Gelion;-inkscape-font-specification:'Gelion, Heavy';font-variant-ligatures:normal;font-variant-caps:normal;font-variant-numeric:normal;font-feature-settings:normal;text-align:start;writing-mode:lr-tb;text-anchor:start;fill:#333333;fill-opacity:1;stroke-width:0.26458332"
         id="path881"
         inkscape:connector-curvature="0" />
    </g>
    <text
       xml:space="preserve"
       style="font-style:normal;font-variant:normal;font-weight:normal;font-stretch:normal;font-size:22.57777786px;line-height:1.25;font-family:'Copyright Klim Type Foundry';-inkscape-font-specification:'Copyright Klim Type Foundry';letter-spacing:0px;word-spacing:0px;fill:#000000;fill-opacity:1;stroke:none;stroke-width:0.26458332"
       x="53.839474"
       y="118.81698"
       id="text821"><tspan
         sodipodi:role="line"
         id="tspan819"
         x="53.839474"
         y="139.24986"
         style="stroke-width:0.26458332" /></text>
    <g
       aria-label="hypertext"
       style="font-style:normal;font-variant:normal;font-weight:900;font-stretch:normal;font-size:22.57777786px;line-height:1.25;font-family:Gelion;-inkscape-font-specification:'Gelion Heavy';letter-spacing:0px;word-spacing:0px;fill:url(#linearGradient837);fill-opacity:1;stroke:none;stroke-width:0.26458332"
       id="text829">
      <path
         d="m 37.337934,124.79952 h 3.50573 v 6.14053 q 0.451996,-0.60633 1.223697,-0.93706 0.782726,-0.33073 1.708768,-0.33073 1.874132,0 2.844271,1.15755 0.970139,1.14653 0.970139,3.08681 v 6.37205 h -3.494705 v -5.53421 q 0,-1.20164 -0.518143,-1.55442 -0.518142,-0.3638 -1.02526,-0.3638 -1.74184,0 -1.730816,1.85208 v 5.60035 h -3.483681 z"
         style="fill:url(#linearGradient911);fill-opacity:1;stroke-width:0.26458332"
         id="path858"
         inkscape:connector-curvature="0" />
      <path
         d="m 60.643316,130.03606 -4.7625,11.80703 q -0.385851,0.94809 -0.859896,1.66467 -0.474045,0.72761 -1.43316,1.30087 -0.959114,0.58429 -2.447395,0.58429 -0.881945,0 -2.193837,-0.27561 l 0.0441,-2.84427 q 0.903993,0.15434 1.543403,0.16537 0.79375,0 1.234722,-0.22049 0.451996,-0.20946 0.650434,-0.52917 0.209462,-0.3197 0.418924,-0.83784 l 0.110243,-0.28664 -4.387674,-10.52821 h 3.803385 l 2.204862,6.26181 2.370225,-6.26181 z"
         style="fill:url(#linearGradient913);fill-opacity:1;stroke-width:0.26458332"
         id="path860"
         inkscape:connector-curvature="0" />
      <path
         d="m 68.448524,129.67226 q 1.488281,0 2.634809,0.68351 1.157552,0.67248 1.796962,1.91823 0.650434,1.24574 0.650434,2.84427 0,1.59852 -0.650434,2.84427 -0.63941,1.24574 -1.807986,1.94028 -1.157552,0.6835 -2.623785,0.6835 -1.89618,0 -2.954514,-0.94809 v 5.54523 h -3.505729 v -15.1474 h 2.921441 l 0.176389,1.03629 q 0.518142,-0.67249 1.400087,-1.03629 0.881944,-0.3638 1.962326,-0.3638 z m -0.694531,7.77213 q 0.992187,0 1.598524,-0.6394 0.606337,-0.65044 0.606337,-1.66467 0,-1.01424 -0.606337,-1.65365 -0.606337,-0.65043 -1.598524,-0.65043 -0.992188,0 -1.631597,0.6394 -0.628386,0.62839 -0.628386,1.66468 0,1.03628 0.628386,1.67569 0.639409,0.62838 1.631597,0.62838 z"
         style="fill:url(#linearGradient915);fill-opacity:1;stroke-width:0.26458332"
         id="path862"
         inkscape:connector-curvature="0" />
      <path
         d="m 85.580296,136.92625 q -0.319704,1.64262 -1.752864,2.65686 -1.43316,1.00321 -3.439583,1.00321 -1.620573,0 -2.86632,-0.6835 -1.245746,-0.69454 -1.940278,-1.94028 -0.683507,-1.24575 -0.683507,-2.84427 0,-1.65365 0.683507,-2.87735 0.694532,-1.23472 1.929254,-1.89618 1.234722,-0.67248 2.811198,-0.67248 1.554427,0 2.734027,0.63941 1.190625,0.62838 1.84106,1.76389 0.661458,1.12448 0.661458,2.56866 0,0.8599 -0.132292,1.44419 h -7.06658 q 0.0441,0.74965 0.595313,1.21267 0.551215,0.46302 1.43316,0.46302 0.650434,0 1.124479,-0.22049 0.485069,-0.23151 0.683507,-0.61736 z m -3.615972,-3.09783 q -0.02205,-0.60633 -0.518142,-0.95911 -0.496094,-0.35278 -1.256771,-0.35278 -0.749653,0 -1.245747,0.35278 -0.496093,0.35278 -0.54019,0.95911 z"
         style="fill:url(#linearGradient917);fill-opacity:1;stroke-width:0.26458332"
         id="path864"
         inkscape:connector-curvature="0" />
      <path
         d="m 93.021702,129.94787 q 0.518142,0 0.926042,0.0882 v 3.05373 l -0.429948,-0.022 q -1.35599,0 -2.083594,0.69453 -0.71658,0.6835 -0.71658,1.94027 v 4.58612 h -3.505729 v -10.25261 h 3.208073 l 0.23151,1.31189 q 0.253559,-0.69453 0.881945,-1.04731 0.628385,-0.35277 1.488281,-0.35277 z"
         style="fill:url(#linearGradient919);fill-opacity:1;stroke-width:0.26458332"
         id="path866"
         inkscape:connector-curvature="0" />
      <path
         d="m 102.227,132.92443 h -1.89618 v 7.36424 h -3.505733 v -7.36424 h -1.874132 v -2.88837 h 1.874132 v -2.63481 h 3.505733 v 2.63481 h 1.89618 z"
         style="fill:url(#linearGradient921);fill-opacity:1;stroke-width:0.26458332"
         id="path868"
         inkscape:connector-curvature="0" />
      <path
         d="m 113.71433,136.92625 q -0.31971,1.64262 -1.75287,2.65686 -1.43316,1.00321 -3.43958,1.00321 -1.62058,0 -2.86632,-0.6835 -1.24575,-0.69454 -1.94028,-1.94028 -0.68351,-1.24575 -0.68351,-2.84427 0,-1.65365 0.68351,-2.87735 0.69453,-1.23472 1.92925,-1.89618 1.23473,-0.67248 2.8112,-0.67248 1.55443,0 2.73403,0.63941 1.19062,0.62838 1.84106,1.76389 0.66146,1.12448 0.66146,2.56866 0,0.8599 -0.13229,1.44419 h -7.06658 q 0.0441,0.74965 0.59531,1.21267 0.55121,0.46302 1.43316,0.46302 0.65043,0 1.12448,-0.22049 0.48507,-0.23151 0.6835,-0.61736 z m -3.61598,-3.09783 q -0.022,-0.60633 -0.51814,-0.95911 -0.49609,-0.35278 -1.25677,-0.35278 -0.74965,0 -1.24575,0.35278 -0.49609,0.35278 -0.54019,0.95911 z"
         style="fill:url(#linearGradient923);fill-opacity:1;stroke-width:0.26458332"
         id="path870"
         inkscape:connector-curvature="0" />
      <path
         d="m 118.20121,140.28867 h -3.79236 l 3.23012,-4.94992 -3.41753,-5.30269 h 4.02387 l 1.69774,2.91042 1.53238,-2.91042 h 3.88056 l -3.34037,5.23655 3.20808,5.01606 h -4.00183 q -1.10243,-1.94028 -1.53237,-2.73403 z"
         style="fill:url(#linearGradient925);fill-opacity:1;stroke-width:0.26458332"
         id="path872"
         inkscape:connector-curvature="0" />
      <path
         d="m 133.31554,132.92443 h -1.89618 v 7.36424 h -3.50573 v -7.36424 h -1.87414 v -2.88837 h 1.87414 v -2.63481 h 3.50573 v 2.63481 h 1.89618 z"
         style="fill:url(#linearGradient927);fill-opacity:1;stroke-width:0.26458332"
         id="path874"
         inkscape:connector-curvature="0" />
    </g>
  </g>
</svg>
